<svg width="406" height="417" viewBox="0 0 406 417" fill="none" xmlns="http://www.w3.org/2000/svg">
    <g opacity="0.3">
    <path d="M478.304 -165.877C478.483 -164.223 478.224 -162.512 477.456 -160.903C475.254 -156.27 469.712 -154.31 465.088 -156.512C427.251 -174.511 385.116 -181.634 343.239 -177.101C233.347 -165.206 148.294 -76.6546 141.003 33.4481C140.667 38.5591 136.239 42.4389 131.127 42.0942C126.016 41.758 122.137 37.3387 122.481 32.2182C126.249 -24.7168 150.09 -78.9853 189.611 -120.59C229.593 -162.681 283.447 -189.306 341.241 -195.562C386.539 -200.465 432.12 -192.765 473.065 -173.28C476.081 -171.836 477.968 -168.98 478.304 -165.877Z" fill="url(#paint0_linear_134_8247)"/>
    <path d="M479.108 -125.899C479.315 -123.986 478.93 -121.983 477.877 -120.195C475.277 -115.78 469.585 -114.31 465.162 -116.909C429.333 -138.029 388.473 -146.824 346.993 -142.334C269.92 -133.992 205.743 -80.615 183.491 -6.34222C182.018 -1.43069 176.844 1.36145 171.933 -0.112343C167.021 -1.58614 164.238 -6.76055 165.703 -11.6711C190.107 -93.1175 260.484 -151.647 344.995 -160.795C390.474 -165.718 435.288 -156.077 474.591 -132.909C477.217 -131.362 478.803 -128.718 479.108 -125.899Z" fill="url(#paint1_linear_134_8247)"/>
    <path d="M476.518 -88.5286C476.759 -86.3051 476.206 -83.9958 474.777 -82.0536C471.746 -77.9152 465.941 -77.0165 461.803 -80.0389C429.657 -103.545 390.137 -114.134 350.51 -109.845C275.919 -101.771 216.378 -41.8157 208.934 32.7202C208.423 37.824 203.873 41.5426 198.778 41.039C193.675 40.5277 189.965 35.9767 190.46 30.8834C194.452 -9.16039 212.264 -47.1164 240.595 -76.0096C269.32 -105.303 307.645 -123.873 348.513 -128.297C392.751 -133.085 436.876 -121.268 472.764 -95.0192C474.96 -93.4172 476.247 -91.0279 476.518 -88.5286Z" fill="url(#paint2_linear_134_8247)"/>
    <path d="M362.222 -87.9173C362.773 -82.8239 359.093 -78.2403 353.991 -77.688C284.269 -70.1411 233.691 -7.28488 241.238 62.4371C242.26 71.8828 244.323 81.1897 247.37 90.0849C249.027 94.9278 246.443 100.212 241.591 101.871C236.74 103.53 231.464 100.944 229.805 96.0929C226.312 85.8945 223.947 75.2427 222.777 64.4267C214.129 -15.4649 272.092 -87.5084 351.983 -96.1561C357.095 -96.7006 361.67 -93.0193 362.222 -87.9173Z" fill="url(#paint3_linear_134_8247)"/>
    <path d="M365.758 -55.2484C366.309 -50.155 362.629 -45.5714 357.527 -45.0191C305.826 -39.4229 268.313 7.19641 273.91 58.8976C274.461 63.991 270.78 68.5746 265.678 69.1269C260.585 69.6782 256.001 65.9978 255.449 60.8958C248.751 -0.983599 293.642 -56.772 355.521 -63.47C360.631 -64.0318 365.206 -60.3505 365.758 -55.2484Z" fill="url(#paint4_linear_134_8247)"/>
    <path d="M411.97 -12.6422C412.175 -10.7462 411.797 -8.76089 410.76 -6.98326C408.179 -2.55351 402.5 -1.04943 398.07 -3.63041C386.866 -10.1517 374.096 -12.8587 361.16 -11.4585C327.971 -7.866 303.892 22.0578 307.485 55.2469C308.036 60.3403 304.356 64.9239 299.254 65.4762C294.152 66.0284 289.577 62.3471 289.024 57.2451C284.33 13.8778 315.794 -25.2247 359.162 -29.9189C376.071 -31.7491 392.75 -28.2097 407.406 -19.6817C410.059 -18.1291 411.663 -15.4776 411.97 -12.6422Z" fill="url(#paint5_linear_134_8247)"/>
    <path d="M544.723 29.5842C553.845 113.862 501.844 193.378 421.069 218.671C416.178 220.203 410.965 217.48 409.442 212.588C407.909 207.696 410.632 202.484 415.525 200.961C487.867 178.316 534.444 107.086 526.272 31.5901C522.911 0.546952 510.695 -28.5435 490.938 -52.5366C487.676 -56.4909 488.245 -62.3508 492.2 -65.604C496.155 -68.8657 502.006 -68.2958 505.268 -64.3416C527.324 -37.5457 540.972 -5.0614 544.723 29.5842Z" fill="url(#paint6_linear_134_8247)"/>
    <path d="M479.904 36.5986C484.874 82.5169 461.802 126.326 421.131 148.202C416.615 150.626 410.983 148.934 408.559 144.427C406.135 139.911 407.819 134.288 412.334 131.855C446.323 113.58 465.597 76.9741 461.444 38.6054C458.234 8.94986 441.69 -16.8645 416.06 -32.2089C411.659 -34.8453 410.231 -40.5414 412.859 -44.9414C415.495 -49.3423 421.192 -50.7697 425.592 -48.1419C456.265 -29.786 476.062 1.10844 479.904 36.5986Z" fill="url(#paint7_linear_134_8247)"/>
    <path d="M446.335 40.2301C449.03 65.1284 439.607 90.1177 421.134 107.071C417.36 110.54 411.481 110.287 408.021 106.511C404.551 102.727 404.805 96.858 408.581 93.3975C422.722 80.4184 429.938 61.292 427.875 42.2283C427.323 37.1349 431.004 32.5513 436.106 31.999C441.208 31.4467 445.784 35.1367 446.335 40.2301Z" fill="url(#paint8_linear_134_8247)"/>
    <path d="M457.049 270.261C457.499 274.424 455.072 278.506 450.952 279.989C432.705 286.542 413.581 290.94 394.12 293.047C259.416 307.627 137.964 209.9 123.382 75.187C122.831 70.0935 126.511 65.5099 131.613 64.9577C136.715 64.4054 141.29 68.0867 141.843 73.1888C155.322 197.715 267.596 288.065 392.131 274.585C410.126 272.638 427.814 268.578 444.683 262.514C449.509 260.78 454.821 263.292 456.555 268.118C456.814 268.822 456.971 269.546 457.049 270.261Z" fill="url(#paint9_linear_134_8247)"/>
    <path d="M431.577 241.719C432.057 246.149 429.282 250.399 424.856 251.645C413.636 254.796 402.037 257.028 390.359 258.292C274.813 270.799 170.639 186.974 158.132 71.4283C157.779 68.1705 157.499 64.8613 157.295 61.605C156.976 56.4864 160.868 52.0805 165.987 51.7704C171.106 51.4518 175.524 55.3768 175.822 60.4628C176.005 63.4424 176.262 66.4577 176.584 69.4396C187.99 174.807 282.986 251.246 388.353 239.841C399.005 238.688 409.597 236.652 419.827 233.775C424.76 232.386 429.885 235.267 431.274 240.209C431.433 240.706 431.523 241.219 431.577 241.719Z" fill="url(#paint10_linear_134_8247)"/>
    <path d="M395.071 215.557C395.622 220.651 391.942 225.234 386.84 225.787C342.033 230.637 297.471 218.492 261.347 191.589C225.422 164.829 201.054 125.946 192.741 82.0894C191.771 77.0761 195.097 72.1995 200.13 71.245C205.162 70.2905 210.019 73.6012 210.974 78.6335C226.34 159.69 302.709 216.216 384.833 207.327C389.944 206.774 394.52 210.464 395.071 215.557Z" fill="url(#paint11_linear_134_8247)"/>
    <path d="M398.93 182.424C399.457 187.293 396.081 191.783 391.188 192.574C388.609 192.993 385.97 193.348 383.359 193.631C333.063 199.075 284.342 178.557 253.029 138.751C249.855 134.718 250.558 128.887 254.583 125.714C258.608 122.54 264.447 123.242 267.621 127.267C294.949 162.011 337.468 179.922 381.361 175.171C383.645 174.923 385.948 174.613 388.21 174.246C393.273 173.419 398.041 176.862 398.858 181.918C398.886 182.098 398.913 182.26 398.93 182.424Z" fill="url(#paint12_linear_134_8247)"/>
    <path d="M389.485 150.58C390.031 155.622 386.425 160.171 381.382 160.786C380.866 160.851 380.349 160.907 379.823 160.964C334.896 165.827 291.52 143.536 269.315 104.174C266.801 99.7118 268.376 94.0481 272.837 91.5249C277.3 89.0103 282.964 90.5858 285.487 95.0472C304.044 127.933 340.283 146.559 377.824 142.495C378.264 142.447 378.695 142.401 379.133 142.345C384.219 141.724 388.849 145.347 389.469 150.433C389.476 150.494 389.48 150.537 389.485 150.58Z" fill="url(#paint13_linear_134_8247)"/>
    <path d="M384.421 117.171C384.973 122.265 381.292 126.848 376.19 127.401C353.05 129.905 330.089 122.145 313.191 106.109C309.469 102.579 309.321 96.7011 312.852 92.9881C316.381 89.2666 322.259 89.1186 325.972 92.6491C338.907 104.93 356.482 110.866 374.193 108.949C379.294 108.388 383.869 112.069 384.421 117.171Z" fill="url(#paint14_linear_134_8247)"/>
    </g>
    <defs>
    <linearGradient id="paint0_linear_134_8247" x1="427.614" y1="-213.317" x2="136.235" y2="7.16056" gradientUnits="userSpaceOnUse">
    <stop stop-color="#FBB92F" stop-opacity="0"/>
    <stop offset="1" stop-color="#F9BB17"/>
    </linearGradient>
    <linearGradient id="paint1_linear_134_8247" x1="431.706" y1="-155.997" x2="203.446" y2="-46.7371" gradientUnits="userSpaceOnUse">
    <stop stop-color="#FBCE68" stop-opacity="0"/>
    <stop offset="1" stop-color="#FBD263"/>
    </linearGradient>
    <linearGradient id="paint2_linear_134_8247" x1="429.63" y1="-121.509" x2="218.436" y2="-8.87708" gradientUnits="userSpaceOnUse">
    <stop stop-color="#FBB92F" stop-opacity="0"/>
    <stop offset="1" stop-color="white"/>
    </linearGradient>
    <linearGradient id="paint3_linear_134_8247" x1="340.964" y1="-95.3291" x2="238.111" y2="44.1983" gradientUnits="userSpaceOnUse">
    <stop stop-color="#FBB92F" stop-opacity="0"/>
    <stop offset="1" stop-color="#F9BB17"/>
    </linearGradient>
    <linearGradient id="paint4_linear_134_8247" x1="322.572" y1="-40.0264" x2="283.375" y2="41.4619" gradientUnits="userSpaceOnUse">
    <stop stop-color="#FBCE68" stop-opacity="0"/>
    <stop offset="1" stop-color="#FBD263"/>
    </linearGradient>
    <linearGradient id="paint5_linear_134_8247" x1="386.016" y1="-24.8542" x2="280.366" y2="50.257" gradientUnits="userSpaceOnUse">
    <stop stop-color="#FBB92F" stop-opacity="0"/>
    <stop offset="1" stop-color="white"/>
    </linearGradient>
    <linearGradient id="paint6_linear_134_8247" x1="457.859" y1="192.996" x2="519.249" y2="2.2157" gradientUnits="userSpaceOnUse">
    <stop stop-color="#FBB92F" stop-opacity="0"/>
    <stop offset="1" stop-color="#F9BB17"/>
    </linearGradient>
    <linearGradient id="paint7_linear_134_8247" x1="444.748" y1="109.467" x2="437.14" y2="-57.2489" gradientUnits="userSpaceOnUse">
    <stop stop-color="#FBB92F" stop-opacity="0"/>
    <stop offset="1" stop-color="white"/>
    </linearGradient>
    <linearGradient id="paint8_linear_134_8247" x1="425.635" y1="85.6532" x2="429.752" y2="7.96217" gradientUnits="userSpaceOnUse">
    <stop stop-color="#FBB92F" stop-opacity="0"/>
    <stop offset="1" stop-color="#F9BB17"/>
    </linearGradient>
    <linearGradient id="paint9_linear_134_8247" x1="120.758" y1="128.333" x2="439.419" y2="290.085" gradientUnits="userSpaceOnUse">
    <stop stop-color="#FBB92F" stop-opacity="0"/>
    <stop offset="1" stop-color="white"/>
    </linearGradient>
    <linearGradient id="paint10_linear_134_8247" x1="174.615" y1="119.361" x2="403.018" y2="242.865" gradientUnits="userSpaceOnUse">
    <stop stop-color="#FBB92F" stop-opacity="0"/>
    <stop offset="1" stop-color="#F9BB17"/>
    </linearGradient>
    <linearGradient id="paint11_linear_134_8247" x1="204.814" y1="116.29" x2="370.497" y2="210.049" gradientUnits="userSpaceOnUse">
    <stop stop-color="#FBCE68" stop-opacity="0"/>
    <stop offset="1" stop-color="#FBD263"/>
    </linearGradient>
    <linearGradient id="paint12_linear_134_8247" x1="267.548" y1="151.952" x2="378.774" y2="171.751" gradientUnits="userSpaceOnUse">
    <stop stop-color="#FBB92F" stop-opacity="0"/>
    <stop offset="1" stop-color="white"/>
    </linearGradient>
    <linearGradient id="paint13_linear_134_8247" x1="290.451" y1="118.154" x2="367.852" y2="143.701" gradientUnits="userSpaceOnUse">
    <stop stop-color="#FBB92F" stop-opacity="0"/>
    <stop offset="1" stop-color="#F9BB17"/>
    </linearGradient>
    <linearGradient id="paint14_linear_134_8247" x1="319.118" y1="105.836" x2="375.309" y2="113.846" gradientUnits="userSpaceOnUse">
    <stop stop-color="#FBCE68" stop-opacity="0"/>
    <stop offset="1" stop-color="#FBD263"/>
    </linearGradient>
    </defs>
    </svg>
    