<svg width="787" height="787" viewBox="0 0 787 787" fill="none" xmlns="http://www.w3.org/2000/svg">
    <path d="M715.969 606.45C713.319 606.45 710.628 605.73 708.191 604.247C701.198 599.944 699.015 590.789 703.317 583.795C738.496 526.681 757.082 460.835 757.082 393.401C757.082 216.443 630.795 65.8058 456.804 35.2248C448.73 33.8049 443.326 26.0908 444.745 18.0164C446.166 9.94201 453.88 4.5167 461.954 5.95779C551.938 21.7675 634.208 69.0694 693.611 139.132C753.713 210.021 786.816 300.323 786.816 393.401C786.816 466.346 766.704 537.574 728.642 599.393C725.845 603.95 720.97 606.45 715.969 606.45Z" fill="url(#paint0_linear_394_6972)"/>
    <path d="M393.419 786.818C247.254 786.818 113.932 706.497 45.5008 577.202C41.6642 569.954 44.4195 560.947 51.6891 557.111C58.9362 553.275 67.9431 556.03 71.7797 563.3C135.06 682.847 258.296 757.106 393.441 757.106C479.228 757.106 562.536 726.673 627.958 671.402C634.231 666.104 643.598 666.889 648.896 673.161C654.194 679.435 653.41 688.802 647.137 694.1C576.312 753.885 486.222 786.818 393.419 786.818Z" fill="url(#paint1_linear_394_6972)"/>
    <path d="M25.4312 497.496C18.7343 497.496 12.6518 492.919 10.9989 486.116C3.70865 455.938 0 424.743 0 393.398C0 176.471 176.492 0 393.419 0C401.621 0 408.275 6.65448 408.275 14.856C408.275 23.0575 401.621 29.7121 393.419 29.7121C192.874 29.7121 29.7329 192.853 29.7329 393.398C29.7329 422.39 33.1451 451.233 39.8845 479.123C41.8127 487.091 36.8966 495.123 28.9275 497.052C27.7621 497.348 26.5966 497.496 25.4312 497.496Z" fill="url(#paint2_linear_394_6972)"/>
    <defs>
    <linearGradient id="paint0_linear_394_6972" x1="800.212" y1="533.953" x2="499.479" y2="32.1796" gradientUnits="userSpaceOnUse">
    <stop stop-color="#FBB92F" stop-opacity="0"/>
    <stop offset="1" stop-color="#F9BB17"/>
    </linearGradient>
    <linearGradient id="paint1_linear_394_6972" x1="139.724" y1="609.742" x2="635.682" y2="779.215" gradientUnits="userSpaceOnUse">
    <stop stop-color="#FBCE68" stop-opacity="0"/>
    <stop offset="1" stop-color="#FBD263"/>
    </linearGradient>
    <linearGradient id="paint2_linear_394_6972" x1="309.282" y1="-13.3337" x2="-3.08049" y2="466.01" gradientUnits="userSpaceOnUse">
    <stop stop-color="#FBB92F" stop-opacity="0"/>
    <stop offset="1" stop-color="white"/>
    </linearGradient>
    </defs>
    </svg>
    